<?xml version="1.0" encoding="UTF-8"?>
<svg width="200px" height="43px" viewBox="0 0 200 43" version="1.1" xmlns="http://www.w3.org/2000/svg" xmlns:xlink="http://www.w3.org/1999/xlink">
    <!-- Generator: Sketch 61.2 (89653) - https://sketch.com -->
    <title>ulangi-docs-logo</title>
    <desc>Created with Sketch.</desc>
    <defs>
        <path d="M8.96,29.24 C10.14,29.24 11.25,29.045 12.29,28.655 C13.33,28.265 14.235,27.72 15.005,27.02 C15.775,26.32 16.38,25.475 16.82,24.485 C17.26,23.495 17.48,22.4 17.48,21.2 L17.48,21.2 L17.48,7.13 L13.82,7.13 L13.82,21.11 C13.82,21.75 13.695,22.35 13.445,22.91 C13.195,23.47 12.85,23.96 12.41,24.38 C11.97,24.8 11.455,25.135 10.865,25.385 C10.275,25.635 9.64,25.76 8.96,25.76 C8.28,25.76 7.65,25.635 7.07,25.385 C6.49,25.135 5.985,24.8 5.555,24.38 C5.125,23.96 4.785,23.47 4.535,22.91 C4.285,22.35 4.16,21.75 4.16,21.11 L4.16,21.11 L4.16,7.13 L0.5,7.13 L0.5,21.2 C0.5,22.4 0.72,23.495 1.16,24.485 C1.6,25.475 2.2,26.32 2.96,27.02 C3.72,27.72 4.615,28.265 5.645,28.655 C6.675,29.045 7.78,29.24 8.96,29.24 Z M23.14,29 L23.14,5.57 L20.29,5.57 L20.29,29 L23.14,29 Z M31.59,29.33 C32.21,29.33 32.755,29.265 33.225,29.135 C33.695,29.005 34.1,28.85 34.44,28.67 C34.78,28.49 35.05,28.305 35.25,28.115 C35.45,27.925 35.59,27.78 35.67,27.68 C35.67,27.72 35.665,27.785 35.655,27.875 C35.645,27.965 35.64,28.06 35.64,28.16 L35.64,28.16 L35.64,29 L38.55,29 L38.55,16.25 L35.76,16.25 L35.64,17.78 C35.58,17.66 35.45,17.495 35.25,17.285 C35.05,17.075 34.775,16.87 34.425,16.67 C34.075,16.47 33.66,16.295 33.18,16.145 C32.7,15.995 32.16,15.92 31.56,15.92 C30.66,15.92 29.805,16.105 28.995,16.475 C28.185,16.845 27.475,17.34 26.865,17.96 C26.255,18.58 25.77,19.305 25.41,20.135 C25.05,20.965 24.87,21.84 24.87,22.76 C24.87,23.64 25.035,24.475 25.365,25.265 C25.695,26.055 26.16,26.75 26.76,27.35 C27.36,27.95 28.07,28.43 28.89,28.79 C29.71,29.15 30.61,29.33 31.59,29.33 Z M31.71,26.51 C31.13,26.51 30.6,26.41 30.12,26.21 C29.64,26.01 29.225,25.735 28.875,25.385 C28.525,25.035 28.255,24.62 28.065,24.14 C27.875,23.66 27.78,23.14 27.78,22.58 C27.78,22.04 27.875,21.535 28.065,21.065 C28.255,20.595 28.525,20.185 28.875,19.835 C29.225,19.485 29.64,19.215 30.12,19.025 C30.6,18.835 31.13,18.74 31.71,18.74 C32.29,18.74 32.82,18.84 33.3,19.04 C33.78,19.24 34.195,19.51 34.545,19.85 C34.895,20.19 35.165,20.595 35.355,21.065 C35.545,21.535 35.64,22.04 35.64,22.58 C35.64,23.12 35.545,23.63 35.355,24.11 C35.165,24.59 34.895,25.01 34.545,25.37 C34.195,25.73 33.78,26.01 33.3,26.21 C32.82,26.41 32.29,26.51 31.71,26.51 Z M43.97,29 L43.97,22.85 C43.97,22.27 44.065,21.73 44.255,21.23 C44.445,20.73 44.715,20.3 45.065,19.94 C45.415,19.58 45.835,19.295 46.325,19.085 C46.815,18.875 47.35,18.77 47.93,18.77 C48.77,18.81 49.39,19.055 49.79,19.505 C50.19,19.955 50.41,20.49 50.45,21.11 L50.45,21.11 L50.45,29 L53.3,29 L53.3,19.76 C53.26,18.62 52.855,17.695 52.085,16.985 C51.315,16.275 50.28,15.92 48.98,15.92 C47.72,15.92 46.67,16.25 45.83,16.91 C44.99,17.57 44.34,18.44 43.88,19.52 C43.84,18.96 43.795,18.455 43.745,18.005 C43.695,17.555 43.65,16.97 43.61,16.25 L43.61,16.25 L41.09,16.25 L41.09,29 L43.97,29 Z M61.69,35.12 C62.71,35.12 63.645,34.97 64.495,34.67 C65.345,34.37 66.075,33.935 66.685,33.365 C67.295,32.795 67.77,32.085 68.11,31.235 C68.45,30.385 68.62,29.42 68.62,28.34 L68.62,28.34 L68.62,16.25 L65.86,16.25 C65.86,16.53 65.84,16.8 65.8,17.06 C65.76,17.32 65.74,17.56 65.74,17.78 C65.7,17.74 65.585,17.62 65.395,17.42 C65.205,17.22 64.935,17.01 64.585,16.79 C64.235,16.57 63.8,16.37 63.28,16.19 C62.76,16.01 62.16,15.92 61.48,15.92 C60.58,15.92 59.735,16.09 58.945,16.43 C58.155,16.77 57.465,17.245 56.875,17.855 C56.285,18.465 55.82,19.185 55.48,20.015 C55.14,20.845 54.97,21.74 54.97,22.7 C54.97,23.64 55.13,24.51 55.45,25.31 C55.77,26.11 56.22,26.81 56.8,27.41 C57.38,28.01 58.07,28.48 58.87,28.82 C59.67,29.16 60.55,29.33 61.51,29.33 C62.11,29.33 62.64,29.265 63.1,29.135 C63.56,29.005 63.965,28.84 64.315,28.64 C64.665,28.44 64.965,28.22 65.215,27.98 C65.465,27.74 65.68,27.52 65.86,27.32 C65.86,27.42 65.84,27.54 65.8,27.68 C65.76,27.82 65.74,27.98 65.74,28.16 C65.72,28.3 65.71,28.435 65.71,28.565 L65.71,28.565 L65.71,28.91 C65.71,30.01 65.34,30.86 64.6,31.46 C63.86,32.06 62.87,32.36 61.63,32.36 C60.71,32.36 59.93,32.175 59.29,31.805 C58.65,31.435 58.05,30.99 57.49,30.47 L57.49,30.47 L55.63,32.42 C55.99,32.74 56.365,33.06 56.755,33.38 C57.145,33.7 57.575,33.99 58.045,34.25 C58.515,34.51 59.045,34.72 59.635,34.88 C60.225,35.04 60.91,35.12 61.69,35.12 Z M61.78,26.51 C61.2,26.51 60.67,26.41 60.19,26.21 C59.71,26.01 59.295,25.735 58.945,25.385 C58.595,25.035 58.325,24.62 58.135,24.14 C57.945,23.66 57.85,23.14 57.85,22.58 C57.85,22.04 57.945,21.535 58.135,21.065 C58.325,20.595 58.595,20.185 58.945,19.835 C59.295,19.485 59.71,19.215 60.19,19.025 C60.67,18.835 61.2,18.74 61.78,18.74 C62.36,18.74 62.895,18.84 63.385,19.04 C63.875,19.24 64.295,19.51 64.645,19.85 C64.995,20.19 65.265,20.595 65.455,21.065 C65.645,21.535 65.74,22.04 65.74,22.58 C65.74,23.12 65.645,23.63 65.455,24.11 C65.265,24.59 64.995,25.01 64.645,25.37 C64.295,25.73 63.875,26.01 63.385,26.21 C62.895,26.41 62.36,26.51 61.78,26.51 Z M72.63,13.1 C73.07,13.1 73.475,12.935 73.845,12.605 C74.215,12.275 74.4,11.84 74.4,11.3 C74.4,10.78 74.215,10.35 73.845,10.01 C73.475,9.67 73.07,9.5 72.63,9.5 C72.19,9.5 71.78,9.67 71.4,10.01 C71.02,10.35 70.83,10.78 70.83,11.3 C70.83,11.84 71.02,12.275 71.4,12.605 C71.78,12.935 72.19,13.1 72.63,13.1 Z M74.04,29 L74.04,16.25 L71.16,16.25 L71.16,29 L74.04,29 Z" id="path-1"></path>
        <path d="M87.725,29.24 C88.925,29.24 89.945,28.97 90.785,28.43 C91.625,27.89 92.245,27.25 92.645,26.51 C92.645,26.71 92.635,26.915 92.615,27.125 C92.595,27.335 92.585,27.55 92.585,27.77 L92.585,27.77 L92.585,29 L94.235,29 L94.235,6.02 L92.585,6.02 L92.585,19.52 C92.425,19.18 92.2,18.84 91.91,18.5 C91.62,18.16 91.27,17.86 90.86,17.6 C90.45,17.34 89.985,17.13 89.465,16.97 C88.945,16.81 88.375,16.73 87.755,16.73 C86.875,16.73 86.06,16.89 85.31,17.21 C84.56,17.53 83.91,17.965 83.36,18.515 C82.81,19.065 82.375,19.725 82.055,20.495 C81.735,21.265 81.575,22.1 81.575,23 C81.575,23.86 81.725,24.67 82.025,25.43 C82.325,26.19 82.745,26.85 83.285,27.41 C83.825,27.97 84.47,28.415 85.22,28.745 C85.97,29.075 86.805,29.24 87.725,29.24 Z M87.905,27.62 C87.245,27.62 86.63,27.5 86.06,27.26 C85.49,27.02 84.995,26.69 84.575,26.27 C84.155,25.85 83.825,25.36 83.585,24.8 C83.345,24.24 83.225,23.63 83.225,22.97 C83.225,22.31 83.345,21.7 83.585,21.14 C83.825,20.58 84.155,20.095 84.575,19.685 C84.995,19.275 85.49,18.95 86.06,18.71 C86.63,18.47 87.245,18.35 87.905,18.35 C88.565,18.35 89.18,18.47 89.75,18.71 C90.32,18.95 90.815,19.28 91.235,19.7 C91.655,20.12 91.985,20.61 92.225,21.17 C92.465,21.73 92.585,22.33 92.585,22.97 C92.585,23.63 92.465,24.24 92.225,24.8 C91.985,25.36 91.655,25.85 91.235,26.27 C90.815,26.69 90.32,27.02 89.75,27.26 C89.18,27.5 88.565,27.62 87.905,27.62 Z M102.775,29.24 C103.675,29.24 104.505,29.075 105.265,28.745 C106.025,28.415 106.69,27.97 107.26,27.41 C107.83,26.85 108.275,26.19 108.595,25.43 C108.915,24.67 109.075,23.86 109.075,23 C109.075,22.14 108.915,21.325 108.595,20.555 C108.275,19.785 107.835,19.115 107.275,18.545 C106.715,17.975 106.05,17.525 105.28,17.195 C104.51,16.865 103.685,16.7 102.805,16.7 C101.925,16.7 101.1,16.865 100.33,17.195 C99.56,17.525 98.89,17.975 98.32,18.545 C97.75,19.115 97.3,19.785 96.97,20.555 C96.64,21.325 96.475,22.14 96.475,23 C96.475,23.9 96.64,24.73 96.97,25.49 C97.3,26.25 97.75,26.91 98.32,27.47 C98.89,28.03 99.555,28.465 100.315,28.775 C101.075,29.085 101.895,29.24 102.775,29.24 Z M102.745,27.62 C102.105,27.62 101.505,27.5 100.945,27.26 C100.385,27.02 99.895,26.69 99.475,26.27 C99.055,25.85 98.725,25.36 98.485,24.8 C98.245,24.24 98.125,23.64 98.125,23 C98.125,22.36 98.245,21.755 98.485,21.185 C98.725,20.615 99.055,20.12 99.475,19.7 C99.895,19.28 100.385,18.95 100.945,18.71 C101.505,18.47 102.105,18.35 102.745,18.35 C103.385,18.35 103.99,18.47 104.56,18.71 C105.13,18.95 105.625,19.28 106.045,19.7 C106.465,20.12 106.795,20.615 107.035,21.185 C107.275,21.755 107.395,22.36 107.395,23 C107.395,23.64 107.275,24.24 107.035,24.8 C106.795,25.36 106.465,25.85 106.045,26.27 C105.625,26.69 105.13,27.02 104.56,27.26 C103.99,27.5 103.385,27.62 102.745,27.62 Z M116.745,29.24 C117.505,29.24 118.22,29.12 118.89,28.88 C119.56,28.64 120.165,28.3 120.705,27.86 L120.705,27.86 L119.685,26.63 C118.865,27.29 117.885,27.62 116.745,27.62 C116.085,27.62 115.47,27.5 114.9,27.26 C114.33,27.02 113.835,26.69 113.415,26.27 C112.995,25.85 112.665,25.36 112.425,24.8 C112.185,24.24 112.065,23.64 112.065,23 C112.065,22.34 112.185,21.725 112.425,21.155 C112.665,20.585 112.995,20.095 113.415,19.685 C113.835,19.275 114.33,18.95 114.9,18.71 C115.47,18.47 116.085,18.35 116.745,18.35 C117.885,18.35 118.865,18.68 119.685,19.34 C119.865,19.12 120.045,18.915 120.225,18.725 C120.405,18.535 120.575,18.33 120.735,18.11 C120.195,17.67 119.585,17.33 118.905,17.09 C118.225,16.85 117.505,16.73 116.745,16.73 C115.865,16.73 115.04,16.895 114.27,17.225 C113.5,17.555 112.83,18 112.26,18.56 C111.69,19.12 111.24,19.785 110.91,20.555 C110.58,21.325 110.415,22.14 110.415,23 C110.415,23.86 110.58,24.67 110.91,25.43 C111.24,26.19 111.69,26.85 112.26,27.41 C112.83,27.97 113.5,28.415 114.27,28.745 C115.04,29.075 115.865,29.24 116.745,29.24 Z M125.555,29.24 C126.815,29.24 127.785,28.895 128.465,28.205 C129.145,27.515 129.485,26.67 129.485,25.67 C129.485,25.03 129.345,24.505 129.065,24.095 C128.785,23.685 128.435,23.35 128.015,23.09 C127.595,22.83 127.14,22.61 126.65,22.43 C126.16,22.25 125.705,22.06 125.285,21.86 C124.865,21.66 124.515,21.425 124.235,21.155 C123.955,20.885 123.815,20.52 123.815,20.06 C123.815,19.76 123.88,19.505 124.01,19.295 C124.14,19.085 124.3,18.915 124.49,18.785 C124.68,18.655 124.89,18.56 125.12,18.5 C125.35,18.44 125.565,18.41 125.765,18.41 C126.245,18.41 126.72,18.505 127.19,18.695 C127.66,18.885 127.975,19.09 128.135,19.31 L128.135,19.31 L129.035,18.14 C128.575,17.68 128.035,17.34 127.415,17.12 C126.795,16.9 126.225,16.79 125.705,16.79 C125.305,16.79 124.89,16.85 124.46,16.97 C124.03,17.09 123.645,17.285 123.305,17.555 C122.965,17.825 122.685,18.165 122.465,18.575 C122.245,18.985 122.135,19.49 122.135,20.09 C122.135,20.75 122.275,21.29 122.555,21.71 C122.835,22.13 123.185,22.47 123.605,22.73 C124.025,22.99 124.485,23.205 124.985,23.375 C125.485,23.545 125.945,23.73 126.365,23.93 C126.785,24.13 127.135,24.365 127.415,24.635 C127.695,24.905 127.835,25.27 127.835,25.73 C127.835,26.07 127.765,26.36 127.625,26.6 C127.485,26.84 127.3,27.04 127.07,27.2 C126.84,27.36 126.59,27.475 126.32,27.545 C126.05,27.615 125.795,27.65 125.555,27.65 C125.275,27.65 124.985,27.61 124.685,27.53 C124.385,27.45 124.105,27.355 123.845,27.245 C123.585,27.135 123.355,27.02 123.155,26.9 C122.955,26.78 122.825,26.67 122.765,26.57 C122.745,26.57 122.7,26.615 122.63,26.705 C122.56,26.795 122.475,26.9 122.375,27.02 C122.275,27.14 122.165,27.27 122.045,27.41 C121.925,27.55 121.825,27.66 121.745,27.74 C122.185,28.26 122.76,28.64 123.47,28.88 C124.18,29.12 124.875,29.24 125.555,29.24 Z" id="path-2"></path>
        <linearGradient x1="50%" y1="100%" x2="50%" y2="0%" id="linearGradient-3">
            <stop stop-color="#009DD6" offset="0%"></stop>
            <stop stop-color="#36BAEB" offset="100%"></stop>
        </linearGradient>
    </defs>
    <g id="ulangi-docs-logo" stroke="none" stroke-width="1" fill="none" fill-rule="evenodd">
        <g id="outline" transform="translate(50.000000, 3.000000)" fill-rule="nonzero">
            <g id="Ulangi">
                <use fill="#FFFFFF" xlink:href="#path-1"></use>
                <use fill="#009DD6" xlink:href="#path-1"></use>
            </g>
            <g id="docs">
                <use fill="#FFFFFF" xlink:href="#path-2"></use>
                <use fill="#353535" xlink:href="#path-2"></use>
            </g>
        </g>
        <g id="logo" transform="translate(3.000000, 1.000000)">
            <g id="icons/Icon-Small-40">
                <g id="Icon_Art-(Edit-Me)">
                    <rect id="bg" fill="url(#linearGradient-3)" x="0" y="0" width="40" height="40" rx="7.8125"></rect>
                    <g id="logo" stroke-width="1" transform="translate(10.625000, 10.703125)" stroke="#FFFFFF">
                        <g id="path-link" transform="translate(0.000000, 0.032969)" stroke-width="2.8125">
                            <path d="M0.024296875,6.25753906 C0.475392141,5.07736203 1.08092561,3.96218218 1.82507813,2.94113281 C3.22089844,1.02597656 4.14394531,0.010859375 4.59742187,0.1696875 C6.27097656,0.755898438 0.78046875,15.6334375 3.6528125,17.1158203 C5.904375,18.2779297 13.3129687,11.3880469 13.9453125,3.8671875 C14.0679687,2.40839844 14.0145312,0.15828125 13.3828125,0.01359375 C12.8646875,-0.105078125 12.1129687,1.22988281 11.6015625,2.3046875 C8.94679688,7.88398438 9.75058594,16.2133984 12.7494531,17.1158594 C14.5652344,17.6623047 17.0090234,15.4328516 19.4352734,12.2702734" id="path"></path>
                        </g>
                    </g>
                </g>
            </g>
        </g>
    </g>
</svg>