<svg height="120" viewBox="0 0 120 120" width="120" xmlns="http://www.w3.org/2000/svg" xmlns:xlink="http://www.w3.org/1999/xlink"><linearGradient id="a" x1="50%" x2="50%" y1="100%" y2="0%"><stop offset="0" stop-color="#009dd6"/><stop offset="1" stop-color="#36baeb"/></linearGradient><g fill="none" fill-rule="evenodd"><rect fill="url(#a)" height="120" rx="23.4375" width="120"/><path d="m.07289063 18.7726172c1.35328579-3.5405311 3.16988619-6.8860707 5.40234375-9.94921876 4.18746093-5.74546875 6.95660152-8.79082031 8.31703122-8.31433594 5.0206641 1.75863281-11.45085935 46.39125-2.8338281 50.8383984 6.7546875 3.4863282 28.9804687-17.1833203 30.8775-39.7458984.3679687-4.37636719.2076562-11.12671875-1.6875-11.56078125-1.554375-.35601563-3.8095313 3.64886719-5.34375 6.87328125-7.9642969 16.7378906-5.5529297 41.7261328 3.4436719 44.4335156 5.4473437 1.639336 12.7787109-5.0490234 20.0574609-14.5367578" stroke="#fff" stroke-width="8.4375" transform="translate(31.875 32.208281)"/></g></svg>